<svg width="354" height="267" viewBox="0 0 354 267" fill="none" xmlns="http://www.w3.org/2000/svg">
<path opacity="0.2" d="M42.1811 242.169H316.48C320.118 235.116 321.841 227.011 320.631 218.641C319.749 212.5 317.363 206.45 316.006 200.326C311.283 179.009 318.833 156.606 307.155 136.942C297.505 120.7 291.821 120.83 288.236 103.206C287.002 97.1426 292.612 78.6422 292.853 72.676C293.326 60.8132 290.385 47.5046 267.198 36.8713C254.52 31.0547 233.152 29.358 219.462 29.1604C211.099 29.0389 202.658 29.1791 194.958 31.3525C178.66 35.9515 167.684 48.9491 153.78 57.5812C144.205 63.5233 133.088 67.4282 121.279 68.9968C114.583 69.8872 107.52 70.0728 101.644 72.7868C91.5757 77.43 87.0932 88.4304 84.4329 99.077C81.7726 109.724 80.0806 121.163 73.2363 129.455C66.6512 137.434 56.1188 141.451 48.2265 148.236C36.0078 158.741 22.6928 170.052 22.4504 193.893C22.2731 211.371 35.6173 220.675 42.1811 242.169Z" fill="#93E3F1"/>
<path d="M262.387 199.548H259.903V241.813H262.387V199.548Z" fill="#FEB546"/>
<path d="M276.146 199.548H273.662V241.813H276.146V199.548Z" fill="#FEB546"/>
<path d="M310.882 241.811H313.366V199.546H310.882V241.811Z" fill="#FEB546"/>
<path d="M297.121 241.811H299.606V199.546H297.121V241.811Z" fill="#EBA03E"/>
<path d="M317.272 196.746H255.97V205.858H317.272V196.746Z" fill="#FEB546"/>
<path d="M319.672 193.903H253.57V197.418H319.672V193.903Z" fill="#EBA03E"/>
<path d="M286.812 165.661V168.154C285.05 168.154 283.359 168.987 282.112 170.47C280.866 171.953 280.166 173.965 280.166 176.062C280.166 178.16 280.866 180.171 282.112 181.655C283.359 183.138 285.05 183.971 286.812 183.971V184.96C286.812 185.148 286.843 185.334 286.904 185.508C286.964 185.681 287.052 185.839 287.164 185.972C287.276 186.104 287.408 186.21 287.554 186.282C287.7 186.353 287.856 186.39 288.014 186.39H297.267C297.586 186.39 297.892 186.239 298.117 185.971C298.342 185.703 298.469 185.339 298.469 184.96V165.661H286.812ZM281.804 176.062C281.805 174.483 282.334 172.968 283.273 171.851C284.212 170.734 285.485 170.105 286.812 170.103V182.021C285.485 182.019 284.212 181.391 283.273 180.274C282.334 179.157 281.805 177.642 281.804 176.062Z" fill="#07085B"/>
<path opacity="0.2" d="M298.469 169.389C296.981 169.389 295.554 170.092 294.502 171.344C293.45 172.596 292.859 174.293 292.859 176.064C292.859 177.834 293.45 179.532 294.502 180.784C295.554 182.036 296.981 182.739 298.469 182.739V169.389Z" fill="#DAEEF7"/>
<path d="M274.279 186.633H272.813C273.081 186.471 273.378 186.388 273.679 186.391H310.423C312.346 186.391 313.901 187.666 313.901 189.239V191.048C313.901 192.62 312.343 193.895 310.423 193.895L274.091 193.885L274.279 186.633Z" fill="#FF5B7E"/>
<path d="M295.14 186.397C296.978 186.397 298.469 187.616 298.469 189.12V191.164C298.469 192.668 296.978 193.887 295.14 193.887H272.267V193.429H272.361L278.176 192.98L279.351 189.207C279.351 189.207 277.082 187.123 276.934 187.071C276.786 187.019 272.361 186.853 272.361 186.853H272.267V186.398L295.14 186.397Z" fill="#E03268"/>
<path d="M273.75 190.128C273.752 189.49 273.626 188.86 273.384 188.291C273.142 187.722 272.79 187.229 272.356 186.853H294.671C296.354 186.853 297.728 187.973 297.728 189.355V190.929C297.728 192.311 296.36 193.429 294.671 193.429H272.356C272.356 193.429 273.75 192.907 273.75 190.128Z" fill="#DAEEF7"/>
<g style="mix-blend-mode:multiply">
<path d="M297.728 189.355V190.929C297.729 191.133 297.698 191.336 297.64 191.528C296.887 190.023 295.445 188.571 292.703 188.104C286.293 187.015 272.361 186.853 272.361 186.853H294.675C296.36 186.853 297.728 187.968 297.728 189.355Z" fill="#DAEEF7"/>
</g>
<path d="M267.204 149.138C266.061 149.169 233.759 149.138 233.759 149.138V188.398L257.648 189.535C257.648 189.535 267.522 184.078 266.882 182.942C266.242 181.806 267.204 149.138 267.204 149.138Z" fill="#06B5A3"/>
<path d="M235.479 85.8178L80.6731 85.8605L81.4854 86.8324C81.4854 86.8324 80.0997 91.1925 79.7171 97.0064C79.3345 102.82 79.5264 155.624 79.7171 157.081C79.9078 158.539 113.734 193.899 113.734 193.899L229.484 191.587C231.227 193.088 233.324 193.897 235.476 193.899C241.413 193.899 246.226 187.8 246.226 180.274V99.4428C246.229 91.9174 241.417 85.8178 235.479 85.8178Z" fill="#02CCC0"/>
<path d="M87.8831 85.8178H75.0944C72.6888 85.8178 70.7387 88.138 70.7387 91.0002V174.626C70.7387 177.488 72.6888 179.808 75.0944 179.808H87.8831C90.2887 179.808 92.2388 177.488 92.2388 174.626V91.0002C92.2388 88.138 90.2887 85.8178 87.8831 85.8178Z" fill="#06B5A3"/>
<path d="M257.648 199.538H128.836V241.803H257.648V199.538Z" fill="#06B5A3"/>
<path d="M267.204 149.138C272.876 149.337 277.57 154.936 277.9 161.911C278.161 167.416 275.759 172.26 272.134 174.679C271.513 175.091 270.996 175.692 270.635 176.421C270.275 177.15 270.084 177.98 270.083 178.826V236.714C270.083 239.518 268.233 241.803 265.951 241.803H259.978C257.696 241.803 255.846 239.524 255.846 236.714V162.724C255.846 155.087 260.962 148.921 267.204 149.138Z" fill="#02CCC0"/>
<path d="M254.941 181.276H128.235C125.338 181.276 122.989 184.07 122.989 187.518V200.27C122.989 203.718 125.338 206.512 128.235 206.512H254.941C257.839 206.512 260.188 203.718 260.188 200.27V187.518C260.188 184.07 257.839 181.276 254.941 181.276Z" fill="#02CCC0"/>
<path d="M246.229 181.276L244.952 181.305C244.12 181.321 242.898 181.357 241.343 181.38L235.733 181.473C233.567 181.511 231.124 181.553 228.46 181.581L219.853 181.673L210.247 181.746C206.916 181.759 203.473 181.79 199.975 181.791L189.37 181.81L178.764 181.792C175.267 181.792 171.824 181.76 168.492 181.747L158.887 181.675C155.833 181.652 152.946 181.616 150.281 181.583C147.616 181.549 145.172 181.513 143.007 181.475L137.397 181.38C135.842 181.357 134.62 181.321 133.787 181.305L132.51 181.276L133.787 181.246C134.62 181.23 135.842 181.194 137.397 181.171L143.007 181.077C145.172 181.039 147.615 180.997 150.281 180.969C152.947 180.941 155.833 180.9 158.887 180.876L168.492 180.806C171.824 180.791 175.267 180.76 178.764 180.76L189.37 180.742L199.975 180.76C203.473 180.76 206.916 180.792 210.247 180.807L219.853 180.878L228.46 180.97C231.124 180.998 233.567 181.041 235.733 181.078L241.343 181.173C242.898 181.196 244.12 181.23 244.952 181.248L246.229 181.276Z" fill="white"/>
<path d="M179.066 107.757L179.641 108.959L179.528 110.16C179.528 110.16 179.227 110.728 179.158 110.765C179.09 110.802 178.362 110.959 178.362 110.959L177.647 110.765L177.115 110.477C177.115 110.477 176.144 109.103 176.465 108.825C176.786 108.548 177.564 107.282 178.203 107.386C178.843 107.49 179.066 107.757 179.066 107.757Z" fill="#FFC0BB"/>
<path d="M233.604 177.586L229.088 174.877C227.839 174.128 226.643 173.263 225.509 172.29L208.331 157.547V166.381L209.468 171.377L218.092 177.2C218.092 177.2 223.598 179.24 227.742 179.648C228.481 179.838 229.245 180.031 229.334 180.049C229.509 180.083 232.862 181.089 233.036 180.257C233.21 179.425 234.787 179.698 234.699 179.353C234.612 179.009 233.604 177.586 233.604 177.586Z" fill="#F9B3AF"/>
<path d="M235.786 179.023L233.604 177.586C233.906 182.46 218.092 177.2 218.092 177.2L218.12 180.404C218.12 181.018 218.587 181.509 219.153 181.504L235.182 181.342C236.343 181.333 236.77 179.691 235.786 179.023Z" fill="#E03268"/>
<path d="M229.6 177.586L223.204 173.752L208.169 162.271L204.319 166.386L205.457 171.382L214.081 177.205C214.081 177.205 219.587 179.245 223.73 179.654C224.47 179.843 225.234 180.037 225.322 180.054C225.496 180.089 228.851 181.094 229.025 180.262C229.199 179.431 230.775 179.703 230.688 179.359C230.6 179.014 229.6 177.586 229.6 177.586Z" fill="#FFC0BB"/>
<path d="M171.366 85.4186C171.366 85.4186 164.014 87.0834 161.155 89.4423C158.296 91.8013 153.22 93.2577 152.87 93.3272L151.938 99.6884C151.938 99.6884 168.331 112.892 170.509 113.794C172.686 114.697 176.089 111.574 176.089 111.574L180.9 107.792L183.44 104.219L188.145 93.8825L171.366 85.4186Z" fill="#FFC0BB"/>
<path d="M181.326 105.237C180.826 105.719 180.386 106.282 180.019 106.909C179.828 107.228 179.663 107.567 179.525 107.923C179.369 108.306 179.285 108.724 179.278 109.15L179.294 109.328L179.31 109.485C179.321 109.555 179.328 109.626 179.329 109.697C179.335 109.83 179.314 109.962 179.269 110.084C179.192 110.33 178.981 110.502 178.736 110.618C178.223 110.829 177.594 110.686 177 110.42C177.46 110.936 178.122 111.323 178.855 111.167C179.049 111.13 179.233 111.041 179.394 110.908C179.555 110.775 179.689 110.601 179.785 110.398C179.837 110.292 179.875 110.177 179.898 110.057C179.923 109.941 179.936 109.821 179.936 109.701C179.937 109.585 179.929 109.469 179.911 109.355C179.905 109.315 179.902 109.273 179.901 109.232L179.893 109.132C179.904 108.808 179.961 108.488 180.062 108.187C180.169 107.851 180.292 107.523 180.43 107.204C180.706 106.55 181.018 105.906 181.326 105.237Z" fill="#F99893"/>
<path d="M167.398 95.8249C167.398 95.8249 164.889 99.8713 167.728 108.521C170.976 118.414 155.491 92.346 163.702 90.6465C166.717 90.0204 167.398 95.8249 167.398 95.8249Z" fill="#F99893"/>
<path d="M198.083 90.2099C197.386 87.3864 195.258 80.7955 195.237 80.7314H195.227C195.129 80.399 195.026 80.0853 194.913 79.7969C194.062 77.6062 192.108 74.1993 188.459 73.7374C188.234 73.708 187.994 73.6866 187.758 73.6639C188.09 73.5442 188.416 73.4034 188.736 73.2421C189.663 72.7986 190.493 72.1112 191.165 71.2316C191.485 70.7833 191.749 70.283 191.95 69.7457C192.134 69.2135 192.251 68.6522 192.298 68.0796C192.139 68.6034 191.933 69.1048 191.682 69.5748C191.429 70.0225 191.127 70.4287 190.784 70.783C190.446 71.1342 190.073 71.4342 189.673 71.6761C189.279 71.9319 188.866 72.142 188.438 72.3036C188.008 72.4691 187.57 72.6077 187.128 72.7188C186.679 72.8256 186.23 72.8976 185.781 72.9577C185.627 72.9777 185.468 72.9924 185.312 73.0071C185.395 72.9404 185.481 72.8736 185.561 72.8082C186.299 72.2048 186.955 71.471 187.506 70.6321C188.071 69.7918 188.46 68.8033 188.64 67.7485C188.799 66.7142 188.713 65.6476 188.39 64.6687C188.441 65.1679 188.451 65.6718 188.419 66.1732C188.385 66.6601 188.3 67.1399 188.166 67.6017C188.031 68.0539 187.855 68.4872 187.641 68.894C187.421 69.2957 187.174 69.6748 186.901 70.0274C186.341 70.7267 185.71 71.3402 185.022 71.8537C184.934 71.9177 184.845 71.9778 184.756 72.0406C184.776 70.7229 184.441 69.5348 184.326 68.9394C184.093 67.7245 182.051 61.6196 175.984 63.7008C175.652 63.8147 175.328 63.9552 175.012 64.1213H174.962C174.529 64.1392 174.095 64.1218 173.664 64.0693C173.248 64.0081 172.839 63.888 172.447 63.7115C172.043 63.538 171.684 63.2456 171.259 62.9359C171.423 63.506 171.732 64.0012 172.143 64.3523C172.567 64.7053 173.058 64.9278 173.572 64.9998C173.623 65.0065 173.676 65.0065 173.729 65.0105C171.33 67.1611 171.043 70.7416 171.092 72.7308C170.328 73.1767 167.219 74.9629 162.835 77.0895C161.012 77.9733 159.744 79.9838 159.357 82.6071C159.037 84.7618 159.369 86.9592 160.213 88.6413C160.028 91.3113 161.617 94.0601 167.411 95.8209C167.411 95.8209 166.237 91.0496 170.189 89.74C171.471 89.3141 172.875 89.6839 173.779 90.8454C174.445 91.6984 174.945 93.0655 174.702 95.2429C174.702 95.2429 178.494 102.943 183.044 102.759L184.075 105.829C184.075 105.829 187.42 105.963 187.653 105.829C187.886 105.696 191.192 102.776 191.192 102.776C191.192 102.776 193.72 102.962 193.836 102.91C194.122 102.811 194.395 102.668 194.648 102.483L194.657 102.513C197.924 101.262 199.204 94.7543 198.083 90.2099ZM164.112 81.5564C163.19 82.4522 161.585 84.2839 160.74 86.4025C160.56 84.0289 162.024 81.3615 162.984 80.0879C164.072 78.6475 166.319 77.1696 168.058 76.1617C166.605 78.1322 165.981 79.7408 164.112 81.5564ZM168.538 75.5369C166.743 76.5355 164.05 78.2069 162.789 79.8797C161.836 81.1426 160.406 83.7445 160.468 86.1542C160.244 85.065 160.214 83.9325 160.379 82.8287C160.704 80.638 161.74 78.9692 163.221 78.251C165.326 77.2311 167.138 76.2872 168.545 75.5303L168.538 75.5369ZM196.145 100.549C196.57 99.5816 196.859 98.2346 196.781 96.3563C196.635 92.8212 196.484 88.6199 196.051 85.0942C196.634 86.9872 197.26 89.0899 197.579 90.3861C198.4 93.717 197.831 98.2079 196.145 100.549Z" fill="#F46C0F"/>
<path d="M178.542 103.398C178.646 103.689 178.77 103.969 178.911 104.235C179.045 104.484 179.207 104.709 179.393 104.903C179.578 105.098 179.786 105.257 180.012 105.377L180.097 105.429C180.126 105.445 180.158 105.454 180.187 105.469L180.371 105.554C180.496 105.609 180.626 105.645 180.758 105.712C180.621 105.748 180.481 105.77 180.34 105.776C180.197 105.776 180.054 105.757 179.914 105.719C179.626 105.643 179.358 105.48 179.138 105.246C178.916 105.015 178.745 104.723 178.641 104.394C178.536 104.078 178.502 103.735 178.542 103.398Z" fill="#07085B"/>
<path d="M192.502 136.41C192.502 136.41 205.854 153.319 211.56 158.981C211.56 158.981 210.918 162.853 208.351 164.439C205.784 166.025 184.958 139.925 185.269 139.925C185.579 139.925 192.502 136.41 192.502 136.41Z" fill="#96C9D6"/>
<path d="M120.436 160.693L119.843 163.961C119.843 163.961 124.87 185.39 144.588 181.505C164.305 177.62 175.974 155.142 175.974 155.142C175.974 155.142 188.459 168.877 206.077 172.348C206.077 172.348 209.071 170.453 209.926 163.329C209.926 163.329 189.003 139.187 183.013 130.862C177.024 122.537 120.436 160.693 120.436 160.693Z" fill="#B5DBE8"/>
<path d="M179.859 114.556C179.859 114.556 179.218 106.96 181.229 103.041C183.241 99.121 184.643 97.7674 184.905 98.2533C185.168 98.7392 183.447 104.219 184.205 104.914C184.963 105.608 188.056 105.047 190.039 94.8183C190.039 94.8183 190.244 91.9748 191.498 92.8412C191.498 92.8412 191.627 92.0602 192.075 91.852C192.446 91.6798 192.84 92.0602 192.84 92.5342V97.0384C192.84 97.0384 193.394 96.7274 193.657 97.3855C193.919 98.0437 193.832 101.617 193.832 101.617C193.832 101.617 194.505 102.763 194.211 104.914C193.917 107.064 186.133 113.591 186.133 113.591L181.844 115.95L179.859 114.556Z" fill="#FFC0BB"/>
<path d="M186.125 113.586L184 114.81L181.868 116.024L181.832 116.045L181.797 116.02L179.801 114.656L179.757 114.626V114.566C179.592 112.448 179.608 110.317 179.805 108.203C179.9 107.142 180.081 106.094 180.346 105.074C180.409 104.817 180.484 104.564 180.571 104.317L180.7 103.944C180.74 103.819 180.788 103.697 180.844 103.58C180.957 103.345 181.054 103.101 181.17 102.874L181.527 102.206C182.005 101.308 182.53 100.446 183.098 99.6244C183.386 99.2115 183.703 98.8288 184.046 98.4803C184.222 98.2897 184.431 98.1483 184.659 98.0664C184.735 98.0448 184.814 98.0547 184.884 98.0945C184.92 98.1205 184.951 98.1556 184.975 98.1973C184.994 98.2386 185.006 98.2839 185.011 98.3308C185.019 98.4728 185.011 98.6156 184.988 98.7553C184.823 99.8099 184.561 100.815 184.352 101.843C184.246 102.356 184.148 102.871 184.082 103.392C184.048 103.652 184.029 103.915 184.025 104.178C184.025 104.433 184.037 104.724 184.203 104.914C184.029 104.733 184.01 104.436 183.995 104.178C183.988 103.91 183.999 103.643 184.028 103.377C184.079 102.85 184.163 102.329 184.252 101.81C184.428 100.774 184.68 99.7485 184.822 98.7192C184.839 98.5989 184.844 98.4765 184.837 98.3548C184.837 98.2707 184.782 98.244 184.693 98.2667C184.498 98.3482 184.319 98.4784 184.169 98.6485C183.843 98.9955 183.543 99.3751 183.271 99.7832C182.715 100.601 182.2 101.458 181.731 102.35C180.708 104.086 180.28 106.155 180.057 108.235C179.856 110.327 179.823 112.438 179.958 114.538L179.91 114.448L181.879 115.866H181.808L183.965 114.721L186.125 113.586Z" fill="#F99893"/>
<path d="M153.455 92.0095C153.455 92.0095 153.28 95.1307 156.139 97.0732C156.139 97.0732 162.847 99.3627 168.098 107.62C173.349 115.877 180.29 123.714 180.29 123.714C180.29 123.714 179.475 116.499 179.533 114.002C179.533 114.002 182.274 112.4 186.125 113.586C186.125 113.586 189.449 123.923 191.083 126.629C192.717 129.335 196.976 143.834 190.616 147.789C184.257 151.743 165.595 138.169 159.6 129.099C159.6 129.099 161.545 137.517 160.144 139.366C158.744 141.215 149.022 149.172 142.488 151.392C135.955 153.612 122.031 165.915 118.998 163.695C118.998 163.695 111.935 142.38 119.269 124.474C127.359 104.728 138.521 95.5246 153.455 92.0095Z" fill="#FF5B7E"/>
<path d="M159.214 128.56C158.772 127.944 158.317 127.335 157.868 126.729C157.419 126.123 156.953 125.527 156.495 124.924C155.565 123.734 154.626 122.556 153.637 121.43C154.441 122.748 155.298 124.012 156.165 125.267C156.603 125.888 157.035 126.517 157.484 127.128C157.796 127.56 158.111 127.988 158.428 128.414C158.112 128.383 157.795 128.339 157.482 128.28C156.968 128.182 156.459 128.048 155.958 127.88C155.458 127.706 154.97 127.485 154.5 127.219C154.028 126.94 153.582 126.602 153.171 126.211C153.524 126.693 153.933 127.113 154.386 127.458C154.847 127.799 155.336 128.084 155.845 128.308C156.353 128.529 156.876 128.702 157.407 128.826C157.94 128.957 158.482 129.035 159.026 129.06L159.6 129.081L159.214 128.56Z" fill="#07085B"/>
<path d="M175.838 154.792C175.6 154.154 175.397 153.497 175.231 152.827C175.063 152.152 174.928 151.466 174.828 150.772C174.721 150.078 174.652 149.377 174.622 148.672C174.589 147.961 174.589 147.248 174.622 146.536C174.491 147.238 174.416 147.953 174.397 148.672C174.379 149.033 174.397 149.393 174.397 149.755C174.421 150.114 174.434 150.477 174.477 150.835C174.552 151.553 174.673 152.264 174.838 152.96C174.968 153.522 175.129 154.073 175.322 154.609C175.011 154.556 174.703 154.477 174.401 154.371C173.983 154.225 173.578 154.03 173.192 153.791C172.996 153.676 172.813 153.534 172.625 153.4C172.436 153.265 172.262 153.106 172.097 152.932C171.755 152.596 171.44 152.222 171.156 151.815C171.616 152.752 172.265 153.538 173.044 154.102C173.436 154.388 173.853 154.621 174.289 154.795C174.727 154.977 175.183 155.094 175.646 155.143L175.983 155.176L175.838 154.792Z" fill="#07085B"/>
<path d="M181.073 124.459C181.988 125.344 182.893 126.24 183.766 127.181C184.642 128.109 185.471 129.096 186.249 130.14C187.003 131.197 187.723 132.313 188.151 133.635C188.036 132.934 187.831 132.259 187.543 131.632C187.258 131.003 186.932 130.401 186.567 129.833C185.831 128.709 185.012 127.667 184.119 126.719C183.23 125.772 182.295 124.888 181.318 124.072C180.962 123.773 180.599 123.485 180.233 123.203L180.289 123.714L181.073 124.459Z" fill="#07085B"/>
<path d="M190.449 101.695C190.262 102.683 190.044 103.673 189.67 104.588C190.063 103.685 190.303 102.699 190.513 101.714C190.723 100.728 190.874 99.7218 191.001 98.7139C191.128 97.706 191.225 96.6927 191.311 95.6781C191.385 94.7329 191.444 93.7864 191.482 92.8359C191.402 92.7806 191.317 92.7379 191.228 92.7091C191.211 93.6903 191.17 94.6755 191.115 95.6581C191.059 96.6709 190.977 97.6819 190.872 98.6912C190.767 99.6991 190.631 100.704 190.449 101.695Z" fill="#F99893"/>
<path d="M192.833 97.0385V96.921C192.772 98.2133 192.561 99.563 192.426 100.842C192.356 101.509 192.27 102.186 192.157 102.844C192.055 103.511 191.898 104.164 191.687 104.793C191.918 104.173 192.097 103.526 192.221 102.863C192.356 102.196 192.464 101.528 192.557 100.861C192.731 99.591 192.983 98.2547 193.088 96.9637C193 96.9713 192.914 96.9966 192.833 97.0385Z" fill="#F99893"/>
<path d="M193.827 101.623C193.756 102.24 193.656 102.852 193.527 103.456C193.404 104.075 193.215 104.674 192.966 105.237C193.253 104.694 193.483 104.111 193.649 103.501C193.788 103.023 193.901 102.539 194.002 102.047C193.956 101.899 193.898 101.757 193.827 101.623Z" fill="#F99893"/>
<g style="mix-blend-mode:multiply" opacity="0.3">
<g style="mix-blend-mode:multiply" opacity="0.3">
<path d="M173.464 110.555C173.464 110.555 172.963 111.388 173.913 113.14C174.361 112.884 174.797 112.598 175.218 112.283C175.104 110.938 173.464 110.555 173.464 110.555Z" fill="#F99893"/>
</g>
</g>
<path d="M174.681 112.663L174.844 112.551C174.8 112.428 174.753 112.306 174.699 112.187C174.443 111.645 174.1 111.169 173.689 110.784C173.288 110.395 172.832 110.095 172.343 109.896C172.57 110.032 172.788 110.188 172.995 110.362C173.204 110.53 173.402 110.716 173.588 110.917C173.962 111.313 174.277 111.779 174.522 112.297C174.586 112.416 174.635 112.54 174.681 112.663Z" fill="#F99893"/>
<path d="M231.781 179.023L229.6 177.588C229.901 182.462 214.088 177.203 214.088 177.203L214.115 180.407C214.115 181.021 214.583 181.512 215.148 181.507L231.177 181.345C232.337 181.333 232.765 179.691 231.781 179.023Z" fill="#FF5B7E"/>
<path d="M253.576 181.276C254.183 181.219 254.791 181.199 255.399 181.216C256.02 181.272 256.627 181.458 257.194 181.763C257.771 182.078 258.297 182.508 258.751 183.035C259.68 184.141 260.272 185.584 260.434 187.135C260.5 187.936 260.48 188.661 260.494 189.404L260.511 193.887L260.494 198.37C260.481 199.119 260.501 199.85 260.434 200.64C260.356 201.417 260.166 202.173 259.873 202.873C259.588 203.566 259.209 204.198 258.751 204.742C258.296 205.268 257.77 205.698 257.194 206.015C256.627 206.319 256.02 206.504 255.399 206.561C254.791 206.577 254.183 206.557 253.576 206.501C254.18 206.451 254.792 206.446 255.382 206.359C255.972 206.249 256.542 206.017 257.065 205.675C258.122 205 258.957 203.922 259.437 202.614C259.678 201.965 259.83 201.273 259.886 200.566C259.931 199.875 259.902 199.107 259.9 198.365L259.883 193.882L259.9 189.399C259.9 188.657 259.932 187.889 259.887 187.198C259.83 186.491 259.679 185.8 259.439 185.15C258.958 183.842 258.123 182.764 257.067 182.089C256.543 181.746 255.974 181.515 255.384 181.405C254.787 181.33 254.174 181.324 253.576 181.276Z" fill="#DAEEF7"/>
<path d="M121.157 149.138H68.1637C67.9606 149.138 67.7564 149.131 67.5499 149.138C61.8792 149.337 57.1847 154.937 56.8549 161.913C56.5945 167.417 58.9957 172.263 62.6198 174.682C63.2407 175.094 63.758 175.695 64.1186 176.424C64.4791 177.153 64.6697 177.983 64.6708 178.829V236.722C64.6708 239.534 66.521 241.813 68.8032 241.813H124.822L121.157 149.138Z" fill="#06B5A3"/>
<path d="M121.157 149.138C115.486 149.337 110.79 154.937 110.46 161.913C110.2 167.417 112.601 172.263 116.226 174.682C116.847 175.094 117.365 175.695 117.725 176.424C118.086 177.153 118.276 177.983 118.277 178.829V236.722C118.277 239.534 120.128 241.813 122.41 241.813H128.382C130.665 241.813 132.515 239.534 132.515 236.722V162.726C132.51 155.087 127.398 148.921 121.157 149.138Z" fill="#02CCC0"/>
<path d="M122.412 241.7L126.806 241.611L127.904 241.594C128.266 241.603 128.628 241.577 128.986 241.515C129.696 241.374 130.361 241.005 130.907 240.447C131.456 239.88 131.87 239.15 132.107 238.332C132.228 237.924 132.304 237.499 132.332 237.068C132.352 236.645 132.34 236.186 132.332 235.733L132.278 230.329L132.143 208.711C132.085 201.502 132.096 194.3 132.074 187.094L132.03 165.476V162.774L131.981 161.48C131.945 161.052 131.879 160.629 131.83 160.201C131.563 158.51 131.021 156.897 130.234 155.453C128.676 152.576 126.148 150.513 123.375 149.906L122.328 149.736C121.977 149.712 121.621 149.711 121.268 149.696L119.074 149.687L114.679 149.673C111.749 149.673 108.819 149.654 105.889 149.616L88.3106 149.451C82.4514 149.352 76.5911 149.293 70.7331 149.158C76.5911 149.025 82.4503 148.966 88.3084 148.867L105.883 148.702C108.811 148.67 111.74 148.65 114.669 148.644L119.063 148.631H121.263C121.641 148.643 122.021 148.643 122.399 148.668L123.532 148.843C126.541 149.485 129.293 151.704 130.999 154.819C131.863 156.386 132.461 158.139 132.759 159.98C132.815 160.444 132.888 160.914 132.929 161.373L132.988 162.778V165.48L132.945 187.098C132.922 194.307 132.933 201.516 132.875 208.715L132.74 230.333L132.686 235.737C132.68 236.19 132.686 236.631 132.653 237.107C132.613 237.572 132.523 238.029 132.385 238.467C132.114 239.335 131.655 240.102 131.055 240.691C130.466 241.264 129.756 241.633 129.003 241.759C128.634 241.812 128.263 241.828 127.892 241.807L126.794 241.79L122.412 241.7Z" fill="white"/>
<path d="M328.31 241.797H25.6897C25.1289 241.797 24.6743 242.337 24.6743 243.005V244.143C24.6743 244.811 25.1289 245.352 25.6897 245.352H328.31C328.871 245.352 329.326 244.811 329.326 244.143V243.005C329.326 242.337 328.871 241.797 328.31 241.797Z" fill="#C4DFE8"/>
<path d="M109.948 128.026C114.249 131.429 107.797 139.155 106.008 141.147C106.489 143.452 106.827 145.797 107.018 148.161C108.462 144.859 108.101 141.422 109.427 139.666C110.914 137.696 113.272 136.863 112.824 141.802C112.469 145.719 108.652 148.169 107.081 149.019C107.293 152.17 107.238 155.339 106.916 158.476C108.948 154.94 108.863 150.844 110.506 149.05C112.302 147.086 114.925 146.554 113.945 152.054C113.135 156.601 108.434 158.689 106.826 159.276C106.688 160.508 106.482 161.728 106.211 162.929C105.585 165.599 104.884 168.135 104.127 170.538C105.962 167.468 106.405 163.863 108.023 162.484C109.963 160.822 112.543 160.773 111.005 166.193C109.787 170.481 105.387 171.8 103.599 172.166C102.07 176.771 100.225 181.219 98.0823 185.465C100.326 183.438 102.723 178.608 105.134 177.619C106.716 176.969 107.476 177.886 107.835 178.767C108.141 179.525 108.132 180.487 107.823 181.406C106.073 186.613 99.6318 186.381 97.712 186.191C95.5867 190.321 93.1702 194.227 90.4885 197.87C91.6576 196.834 93.4169 195.26 94.3112 194.399C95.7204 193.033 98.0228 192.045 99.3401 192.733C99.3939 192.761 99.4523 192.791 99.4971 192.823C100.455 193.439 100.72 195.041 100.217 196.54C98.2528 202.403 91.1381 199.677 89.6256 199.022L89.5785 199.085C83.7788 206.622 79.0102 210.014 78.8071 210.154L78.5558 209.265C78.6029 209.233 83.1415 206 88.6181 199.03C86.5412 190.456 89.6279 185.146 91.4478 185.07C93.3294 184.994 94.9687 187.66 92.682 191.319C91.3535 193.44 90.2764 195.991 89.6054 197.751C92.3652 194.064 94.8463 190.094 97.0197 185.888C91.2918 177.112 96.5339 171.737 98.5849 172.814C100.66 173.909 100.465 176.285 98.9575 179.675C98.1857 181.426 97.6428 183.306 97.3474 185.251C99.4603 181.09 101.283 176.73 102.797 172.215C101.144 171.92 97.0119 170.746 97.0253 166.433C97.0422 161.037 99.6183 161.008 101.089 162.616C102.436 164.096 101.58 168.334 103.034 171.502C103.931 168.775 104.75 165.88 105.472 162.811C105.484 162.762 106.115 160.116 106.337 155.881C104.609 155.873 100.329 155.431 99.9224 151.278C99.4107 146.062 102.03 145.595 103.685 146.899C105.161 148.063 104.768 152.091 106.377 154.9C106.53 150.476 106.159 146.048 105.278 141.746C103.483 141.721 99.3636 141.212 98.9653 137.145C98.4548 131.929 101.074 131.461 102.727 132.766C104.225 133.946 103.799 138.072 105.492 140.885L105.572 140.836C105.584 139.377 105.601 136.282 105.549 134.816C105.482 132.859 106.223 130.01 107.514 128.719C108.805 127.428 109.948 128.026 109.948 128.026Z" fill="#FEB546"/>
<path d="M62.429 129.005L54.5356 116.1C56.7382 104.795 59.0304 95.5646 59.0304 95.5646C70.1732 107.064 76.9827 120.348 80.9468 133.783L76.0301 150.988L83.2773 143.212C90.6702 179.855 79.3502 214.791 79.3502 214.791C79.3502 214.791 54.3292 166.533 51.1281 153.408C49.8938 148.335 50.7915 138.561 52.3533 128.466C56.5093 129.073 62.429 129.005 62.429 129.005Z" fill="#E03268"/>
<path d="M59.0304 95.5646C59.0304 95.5646 80.0122 172.896 79.3502 214.791C79.3502 214.791 54.3292 166.533 51.1281 153.408C49.8938 148.335 50.7915 138.561 52.3533 128.466C56.5048 129.073 62.429 129 62.429 129L54.5356 116.094C56.7382 104.797 59.0304 95.5646 59.0304 95.5646Z" fill="#FF5B7E"/>
<path d="M80.2972 118.07C76.8245 117.631 77.5471 125.502 77.8512 127.934C77.8568 127.988 77.851 128.042 77.8341 128.092C77.8172 128.142 77.7899 128.186 77.7547 128.22C76.9527 129.026 76.19 129.885 75.4702 130.794C75.4344 130.849 75.3835 130.887 75.3264 130.902C75.2693 130.918 75.2096 130.909 75.1575 130.877C75.1054 130.845 75.0642 130.793 75.041 130.729C75.0178 130.665 75.0141 130.594 75.0304 130.527C75.5555 128.344 76.5934 126.789 76.489 125.226C76.36 123.198 75.3457 121.326 73.8433 124.498C72.6977 126.918 73.8164 130.412 74.4122 131.935C74.4316 131.988 74.4379 132.046 74.4306 132.103C74.4232 132.16 74.4025 132.214 74.3707 132.257C73.4419 133.579 72.5991 134.984 71.8495 136.458C71.698 136.757 71.3154 136.615 71.3681 136.281C71.7732 133.76 72.7976 131.818 72.5642 130.121C72.2601 127.916 70.9934 126.071 69.5864 129.882C68.4644 132.929 70.1788 136.745 70.9137 138.159C70.9348 138.204 70.9458 138.254 70.9458 138.305C70.9458 138.356 70.9348 138.406 70.9137 138.45C70.5791 139.214 70.2831 140.001 70.0273 140.806C69.8777 141.295 69.7326 141.782 69.592 142.267C69.4865 142.634 69.0231 142.525 69.0882 142.147C69.2599 141.148 69.3564 140.258 69.178 139.487C68.6876 137.375 67.2705 135.84 66.2057 139.931C65.3855 143.079 67.2357 146.339 68.1322 147.664C68.155 147.699 68.1707 147.74 68.1781 147.783C68.1855 147.827 68.1844 147.871 68.1749 147.914C67.5765 150.701 67.1168 153.527 66.7982 156.378C66.7578 156.742 66.3 156.762 66.2775 156.401C66.1328 154.12 66.1317 151.521 65.4192 150.087C64.7695 148.78 64.0245 148.874 63.5118 149.188C63.0719 149.455 62.7365 150.027 62.5827 150.75C61.7367 154.717 65.1701 158.255 66.4066 159.379C66.4381 159.408 66.463 159.446 66.4789 159.49C66.4948 159.534 66.5012 159.581 66.4975 159.629C66.3023 162.247 66.2273 164.877 66.2731 167.505C66.2798 167.87 65.8242 167.968 65.7569 167.62C65.6503 167.107 65.5572 166.64 65.4921 166.285C65.1926 164.658 64.2579 162.73 63.2862 162.367C63.2458 162.351 63.2055 162.339 63.1662 162.328C62.4156 162.13 61.7008 162.919 61.4484 164.096C60.4621 168.697 65.3855 171.247 66.4582 171.744C66.4582 171.765 66.4582 171.786 66.4582 171.808C66.9317 178.502 68.0593 182.968 68.415 184.246C68.4289 184.29 68.4513 184.33 68.4805 184.362C68.5096 184.394 68.5448 184.418 68.583 184.431C68.6212 184.444 68.6614 184.446 68.7005 184.437C68.7395 184.428 68.7762 184.408 68.8077 184.38C68.8562 184.343 68.8934 184.289 68.9136 184.225C68.9339 184.161 68.9361 184.091 68.9199 184.026C68.6461 183.053 67.5398 178.819 67.0282 172.506C67.0248 172.452 67.0327 172.399 67.0511 172.349C67.0695 172.3 67.0979 172.257 67.1336 172.224C71.2111 168.404 71.3659 163.556 70.3875 162.46C69.3676 161.316 67.5118 161.926 67.4882 165.423C67.4816 166.354 67.4295 167.285 67.3322 168.21C67.2918 168.584 66.8195 168.594 66.8094 168.222C66.7366 165.455 66.7991 162.686 66.9968 159.928C67.0033 159.86 67.0271 159.795 67.065 159.744C67.1028 159.692 67.153 159.655 67.2088 159.638C73.2879 157.742 72.2848 151.636 70.778 151.081C69.2352 150.515 68.5014 152.026 68.139 154.905C68.0602 155.523 67.9497 156.134 67.808 156.736C67.7205 157.107 67.247 157.036 67.2941 156.658C67.5893 153.983 68.0104 151.33 68.5552 148.711C68.5655 148.662 68.5851 148.617 68.6123 148.579C68.6395 148.54 68.6738 148.51 68.7124 148.49C68.7511 148.469 68.7931 148.46 68.8353 148.462C68.8774 148.464 68.9187 148.478 68.9558 148.501C70.1407 149.336 72.5171 150.564 73.9061 148.234C75.8136 145.046 74.3875 143.525 72.9996 143.613C71.845 143.687 70.8991 146.149 69.2969 147.368C69.2555 147.403 69.2059 147.423 69.1549 147.424C69.1039 147.424 69.0539 147.406 69.0119 147.372C68.9698 147.338 68.9376 147.289 68.9198 147.232C68.9019 147.175 68.8992 147.113 68.912 147.054C69.353 145.133 69.8736 143.168 70.4896 141.168C70.4997 141.134 71.0383 139.365 72.2938 136.911C72.3133 136.871 72.3396 136.837 72.3711 136.81C72.4026 136.783 72.4385 136.764 72.4765 136.755C72.5144 136.746 72.5536 136.747 72.5913 136.757C72.6291 136.767 72.6646 136.787 72.6955 136.815C73.7872 137.883 76.0862 139.666 77.6627 137.616C79.7945 134.842 78.5053 133.037 77.123 132.839C76.0806 132.69 75.0551 134.527 73.6189 135.528C73.5705 135.568 73.5116 135.586 73.4529 135.579C73.3941 135.572 73.3394 135.541 73.2987 135.49C73.258 135.439 73.234 135.372 73.231 135.302C73.2279 135.232 73.2462 135.163 73.2823 135.107C74.5963 132.867 76.1418 130.833 77.8826 129.052C77.9294 129.002 77.9893 128.973 78.052 128.971C78.1147 128.968 78.1762 128.992 78.2259 129.037C79.3165 130.105 81.6223 131.901 83.2021 129.847C85.3339 127.073 84.0436 125.268 82.6612 125.071C81.4113 124.892 80.185 127.571 78.2461 128.239L78.2192 128.163C78.7308 127.296 79.8181 125.465 80.3656 124.63C81.0972 123.518 81.6941 121.401 81.4349 119.892C81.2105 118.573 80.5317 118.168 80.3634 118.086C80.342 118.077 80.3197 118.072 80.2972 118.07Z" fill="#FEB546"/>
<path d="M39.2122 140.842C45.5528 143.552 50.8408 147.895 55.2436 153.124C55.0192 156.854 54.8128 161.331 54.8128 161.331L58.171 156.908C73.8029 178.825 76.5507 211.762 76.5507 211.762C62.6142 206.139 53.7648 196.943 48.1738 187.008C48.939 184.833 50.1059 181.631 50.1059 181.631L46.4515 183.731C44.1477 178.962 42.3643 173.864 41.1443 168.558C43.0518 167.49 45.1758 166.185 45.1758 166.185L40.1828 163.812C37.9623 150.943 39.2122 140.842 39.2122 140.842Z" fill="#E03268"/>
<path d="M48.1738 187.008C48.939 184.833 50.1059 181.631 50.1059 181.631L46.4515 183.731C44.1477 178.962 42.3643 173.864 41.1444 168.558C43.0518 167.49 45.1758 166.185 45.1758 166.185L40.1828 163.813C37.9579 150.943 39.2078 140.837 39.2078 140.837C58.5962 164.67 76.5463 211.762 76.5463 211.762C62.6142 206.139 53.7648 196.943 48.1738 187.008Z" fill="#FF5B7E"/>
<path d="M63.6621 207.315H86.613V235.722C86.613 237.337 86.0738 238.886 85.1141 240.028C84.1544 241.17 82.8527 241.811 81.4955 241.811H68.7796C67.4224 241.811 66.1207 241.17 65.161 240.028C64.2013 238.886 63.6621 237.337 63.6621 235.722V207.315Z" fill="#07085B"/>
<path d="M86.6848 211.609H63.5903C62.6523 211.609 61.8916 210.465 61.8916 209.054C61.8916 207.643 62.6523 206.5 63.5903 206.5H86.6848C87.6239 206.5 88.3847 207.643 88.3847 209.054C88.3847 210.465 87.6295 211.609 86.6848 211.609Z" fill="#55769F"/>
</svg>
